<svg xmlns="http://www.w3.org/2000/svg" width="35" height="35" viewBox="0 0 35 35">
  <g id="Group_476" data-name="Group 476" transform="translate(0.5 0.5)">
    <g id="Gr" style="isolation: isolate">
      <g id="Group_497" data-name="Group 497" style="isolation: isolate">
        <path id="Path_466" data-name="Path 466" d="M10.42,22.38a6.108,6.108,0,0,1-3.43-5.6,5.927,5.927,0,0,1,1-3.4,6.544,6.544,0,0,1,2.76-2.29,9.312,9.312,0,0,1,3.94-.81,11.69,11.69,0,0,1,1.95.16,5.588,5.588,0,0,1,1.55.46.451.451,0,0,1,.21.14,1.164,1.164,0,0,1,.05.32L18.71,14c0,.04-.037.066-.11.08s-.117-.007-.13-.06a5.59,5.59,0,0,0-1.54-2.31,4.041,4.041,0,0,0-2.88-1.05,4.676,4.676,0,0,0-2.51.7,4.809,4.809,0,0,0-1.78,2.01,6.725,6.725,0,0,0-.65,3.03,7.6,7.6,0,0,0,.71,3.31,5.654,5.654,0,0,0,2.02,2.35,5.355,5.355,0,0,0,3.01.86,3.576,3.576,0,0,0,1.34-.2,1.281,1.281,0,0,0,.7-.72,4.086,4.086,0,0,0,.22-1.52,5.921,5.921,0,0,0-.12-1.45.786.786,0,0,0-.53-.55,5.01,5.01,0,0,0-1.43-.14c-.08,0-.12-.053-.12-.16a.212.212,0,0,1,.03-.11.085.085,0,0,1,.07-.05q1.659.1,2.66.1t2.08-.06a.086.086,0,0,1,.07.05.183.183,0,0,1,.03.09c0,.093-.034.14-.1.14a.76.76,0,0,0-.56.13,1,1,0,0,0-.21.61q-.051.46-.05,1.6A7.991,7.991,0,0,0,19,21.96a3.668,3.668,0,0,1,.07.48.23.23,0,0,1-.04.16.463.463,0,0,1-.18.08,21.014,21.014,0,0,1-4.5.56A8.479,8.479,0,0,1,10.42,22.38Z" fill="#fff"/>
        <path id="Path_467" data-name="Path 467" d="M27.21,15.38a.871.871,0,0,1,.42.72.859.859,0,0,1-.23.62.833.833,0,0,1-.63.24.772.772,0,0,1-.43-.11,1.775,1.775,0,0,1-.35-.31,2.036,2.036,0,0,0-.32-.27.618.618,0,0,0-.34-.09.85.85,0,0,0-.47.17,5.942,5.942,0,0,0-.77.71v4.32a1.8,1.8,0,0,0,.16.85.881.881,0,0,0,.54.41,3.95,3.95,0,0,0,1.12.12c.053,0,.08.04.08.12s-.027.12-.08.12c-.44,0-.794-.007-1.06-.02l-1.58-.02-1.16.02q-.281.02-.78.02-.06,0-.06-.12t.06-.12a1.114,1.114,0,0,0,.9-.28,1.906,1.906,0,0,0,.22-1.1V17.56a2.214,2.214,0,0,0-.15-.94.51.51,0,0,0-.49-.3,3.021,3.021,0,0,0-1,.3h-.02c-.054,0-.094-.033-.12-.1s-.02-.107.02-.12l2.62-1.28a.928.928,0,0,1,.14-.04c.133,0,.267.144.4.43a3.153,3.153,0,0,1,.24,1.13,7.2,7.2,0,0,1,1.3-1.22,1.761,1.761,0,0,1,.94-.34A1.491,1.491,0,0,1,27.21,15.38Z" fill="#fff"/>
      </g>
    </g>
    <g id="Ellipse_35" data-name="Ellipse 35">
      <circle id="Ellipse_38" data-name="Ellipse 38" cx="17" cy="17" r="17" fill="none" stroke="#fff" stroke-width="1"/>
      <circle id="Ellipse_39" data-name="Ellipse 39" cx="16" cy="16" r="16" transform="translate(1 1)" fill="none" stroke="#fff" stroke-width="2"/>
    </g>
  </g>
</svg>
