<svg xmlns="http://www.w3.org/2000/svg" width="35" height="35" viewBox="0 0 35 35">
  <g id="Group_466" data-name="Group 466" transform="translate(0.5 0.5)">
    <g id="En" style="isolation: isolate">
      <g id="Group_496" data-name="Group 496" style="isolation: isolate">
        <path id="Path_464" data-name="Path 464" d="M16.16,19.84a.212.212,0,0,1,.11.03c.033.02.05.037.05.05a21.519,21.519,0,0,0-.2,2.78.35.35,0,0,1-.06.23.311.311,0,0,1-.24.07H7.14q-.06,0-.06-.12t.06-.12a3.514,3.514,0,0,0,.99-.1.629.629,0,0,0,.42-.39,2.685,2.685,0,0,0,.11-.89V12.12a2.594,2.594,0,0,0-.11-.88.667.667,0,0,0-.43-.39,3.246,3.246,0,0,0-.98-.11q-.06,0-.06-.12t.06-.12h8.32c.133,0,.2.06.2.18l.04,2.6c0,.027-.037.047-.11.06s-.117,0-.13-.04a2.581,2.581,0,0,0-2.78-2.28h-.8a1.559,1.559,0,0,0-1.02.26,1.113,1.113,0,0,0-.3.88v4.08h1.92q2.2,0,2.2-1.48c0-.04.036-.06.11-.06s.11.02.11.06l-.02,1.74.02.94c.026.427.04.774.04,1.04,0,.027-.04.04-.12.04s-.12-.013-.12-.04q0-1.72-2.24-1.72h-1.9V21.3a1.319,1.319,0,0,0,.25.92,1.21,1.21,0,0,0,.89.26h.98a3.221,3.221,0,0,0,3.4-2.6C16.08,19.854,16.106,19.84,16.16,19.84Z" fill="#fff"/>
        <path id="Path_465" data-name="Path 465" d="M27.38,22.88q0,.12-.06.12c-.334,0-.593-.007-.78-.02l-1.16-.02-1.14.02q-.3.02-.8.02-.06,0-.06-.12t.06-.12a1.113,1.113,0,0,0,.9-.28,1.914,1.914,0,0,0,.22-1.1v-3a2.7,2.7,0,0,0-.41-1.65,1.53,1.53,0,0,0-1.29-.53,2.6,2.6,0,0,0-1.06.24,3.642,3.642,0,0,0-.98.64v4.3a1.914,1.914,0,0,0,.22,1.1,1.113,1.113,0,0,0,.9.28q.06,0,.06.12t-.06.12c-.334,0-.593-.007-.78-.02L20,22.96l-1.16.02c-.187.013-.446.02-.78.02Q18,23,18,22.88t.06-.12a1.114,1.114,0,0,0,.9-.28,1.914,1.914,0,0,0,.22-1.1V17.56a2.214,2.214,0,0,0-.15-.94.509.509,0,0,0-.49-.3,3.027,3.027,0,0,0-1,.3h-.02c-.054,0-.094-.033-.12-.1s-.02-.107.02-.12l2.62-1.28a.928.928,0,0,1,.14-.04q.2,0,.41.45a2.978,2.978,0,0,1,.23,1.17,3.99,3.99,0,0,1,3.04-1.66,2.23,2.23,0,0,1,1.72.67,2.562,2.562,0,0,1,.62,1.81v3.86a1.906,1.906,0,0,0,.22,1.1,1.111,1.111,0,0,0,.9.28Q27.38,22.76,27.38,22.88Z" fill="#fff"/>
      </g>
    </g>
    <g id="Ellipse_35" data-name="Ellipse 35">
      <circle id="Ellipse_36" data-name="Ellipse 36" cx="17" cy="17" r="17" fill="none" stroke="#fff" stroke-width="1"/>
      <circle id="Ellipse_37" data-name="Ellipse 37" cx="16" cy="16" r="16" transform="translate(1 1)" fill="none" stroke="#fff" stroke-width="2"/>
    </g>
  </g>
</svg>
