<svg xmlns="http://www.w3.org/2000/svg" width="15.128" height="17.289" viewBox="0 0 15.128 17.289">
  <path id="Icon_awesome-calendar" data-name="Icon awesome-calendar" d="M.405,6.483H14.722a.406.406,0,0,1,.405.405v8.779a1.621,1.621,0,0,1-1.621,1.621H1.621A1.621,1.621,0,0,1,0,15.668V6.888A.406.406,0,0,1,.405,6.483ZM15.128,5V3.782a1.621,1.621,0,0,0-1.621-1.621H11.886V.405A.406.406,0,0,0,11.481,0H10.13a.406.406,0,0,0-.405.405V2.161H5.4V.405A.406.406,0,0,0,5,0H3.647a.406.406,0,0,0-.405.405V2.161H1.621A1.621,1.621,0,0,0,0,3.782V5A.406.406,0,0,0,.405,5.4H14.722A.406.406,0,0,0,15.128,5Z" fill="#070606"/>
</svg>
