<svg xmlns="http://www.w3.org/2000/svg" width="18.755" height="18.962" viewBox="0 0 18.755 18.962">
  <path id="Path_31" data-name="Path 31" d="M24.2,18.859a.32.32,0,0,0-.4.036l-1.208,1.151a.824.824,0,0,1-.96.126c-1-.543-4.358-2.546-5.567-5.567a.817.817,0,0,1,.144-.834l.989-1.18a.32.32,0,0,0,.029-.36L15.051,8.588a.327.327,0,0,0-.237-.158h-.04a.308.308,0,0,0-.227.093L12.3,10.771a.28.28,0,0,0-.09.216c0,1.651.694,10.069,12.417,13.306H24.7a.323.323,0,0,0,.216-.083l2.773-2.575a.317.317,0,0,0,.1-.263.313.313,0,0,0-.144-.241Z" transform="translate(-6.432 -10.96) rotate(13)" fill="#070606"/>
</svg>
